<svg width="16" height="16" fill="none" xmlns="http://www.w3.org/2000/svg"><g clip-path="url(#danger__a)" fill="#FF4242"><path fill-rule="evenodd" clip-rule="evenodd" d="M8 2a6 6 0 1 0 0 12A6 6 0 0 0 8 2ZM.667 8a7.333 7.333 0 1 1 14.666 0A7.333 7.333 0 0 1 .667 8Z"/><path d="M8.667 10.666a.667.667 0 1 1-1.334 0 .667.667 0 0 1 1.334 0Z"/><path fill-rule="evenodd" clip-rule="evenodd" d="M8 9.083a.667.667 0 0 1-.667-.667v-3.75a.667.667 0 0 1 1.334 0v3.75A.667.667 0 0 1 8 9.083Z"/></g><defs><clipPath id="danger__a"><path fill="#fff" d="M0 0h16v16H0z"/></clipPath></defs></svg>